<?xml version="1.0" encoding="utf-8"?>
<!-- Generator: Adobe Illustrator 23.0.6, SVG Export Plug-In . SVG Version: 6.00 Build 0)  -->
<svg version="1.1" id="Layer_1" xmlns="http://www.w3.org/2000/svg" xmlns:xlink="http://www.w3.org/1999/xlink" x="0px" y="0px"
	 viewBox="0 0 204.4 120.3" style="enable-background:new 0 0 204.4 120.3;" xml:space="preserve">
<style type="text/css">
	.st0{fill:#FFFFFF;}
</style>
<g>
	<path class="st0" d="M126.5,23.7H78c-6.7,0-12.2,5.5-12.2,12.2v48.5c0,6.7,5.5,12.2,12.2,12.2h48.5c6.8,0,12.2-5.5,12.2-12.2V35.9
		C138.6,29.2,133.1,23.7,126.5,23.7z M98.8,92l-0.3-9.2c-4.8-0.8-8.9-2.9-12.5-6.5c-4.5-4.4-6.7-9.8-6.7-16.2
		c0-6.4,2.2-11.7,6.7-16.2c3.6-3.6,7.9-5.8,12.8-6.5v11c-1.9,0.6-3.7,1.6-5.2,3.1c-2.3,2.4-3.5,5.3-3.5,8.6c0,3.3,1.1,6.2,3.5,8.6
		c1.6,1.5,3.3,2.5,5.2,3.1h0.6L98.8,92z M106,56.3v7.5h-7.5v-7.5H106z M118.4,76.3c-3.7,3.6-7.9,5.8-12.8,6.5v-11
		c1.9-0.6,3.7-1.6,5.2-3.1c2.3-2.4,3.5-5.3,3.5-8.6c0-3.4-1.1-6.2-3.5-8.6c-1.6-1.5-3.3-2.6-5.2-3.1H105l0.6-20.2l0.3,9.2
		c4.8,0.8,9,2.9,12.5,6.5c4.5,4.5,6.7,9.9,6.7,16.2C125.1,66.4,122.9,71.8,118.4,76.3z"/>
</g>
</svg>
