<?xml version="1.0" encoding="utf-8"?>
<!-- Generator: Adobe Illustrator 23.0.6, SVG Export Plug-In . SVG Version: 6.00 Build 0)  -->
<svg version="1.1" id="Layer_1" xmlns="http://www.w3.org/2000/svg" xmlns:xlink="http://www.w3.org/1999/xlink" x="0px" y="0px"
	 viewBox="0 0 423.6 137" style="enable-background:new 0 0 423.6 137;" xml:space="preserve">
<style type="text/css">
	.st0{fill:#FFFFFF;}
</style>
<g>
	<g>
		<path class="st0" d="M60.3,50.7L60,42.1L59.4,61H60c1.8,0.5,3.4,1.5,4.9,2.9c2.2,2.2,3.3,4.9,3.3,8s-1.1,5.8-3.3,8.1
			c-1.4,1.4-3.1,2.4-4.9,2.9v10.3c4.6-0.6,8.6-2.7,12-6.1c4.2-4.2,6.3-9.2,6.3-15.2c0-5.9-2.1-11-6.3-15.1
			C68.6,53.4,64.7,51.4,60.3,50.7z"/>
		<path class="st0" d="M48.8,80c-2.2-2.2-3.3-4.9-3.3-8.1c0-3.1,1.1-5.8,3.3-8c1.4-1.4,3.1-2.4,4.9-2.9V50.7
			c-4.6,0.6-8.6,2.7-12,6.1c-4.2,4.2-6.3,9.2-6.3,15.1c0,6,2.1,11,6.3,15.2c3.3,3.4,7.2,5.4,11.7,6l0.3,8.6l0.6-18.9h-0.6
			C51.8,82.4,50.2,81.4,48.8,80z"/>
		<path class="st0" d="M105.3,50.7c-1.7,0-5.2,0-5.2,0v10c0,0,3.2,0,5,0c3.1,0,5.8,1.1,8,3.3c2.2,2.2,3.3,4.9,3.3,8
			s-1.1,5.8-3.3,8.1c-2.3,2.2-4.9,3.3-8,3.3s-5.8-1.1-8.1-3.3c-2-2-3.1-4.4-3.3-7.2c0-0.3,0-0.6,0-0.9V35.3H83.6v37.9h0.1
			c0.3,5.6,2.5,10.4,6.7,14.3c4.1,3.9,9,5.9,14.7,5.9c5.9,0,11-2.1,15.1-6.3c4.2-4.2,6.3-9.2,6.3-15.2c0-5.9-2.1-11-6.3-15.1
			C116.1,52.6,111.2,50.7,105.3,50.7z"/>
		<path class="st0" d="M152.7,66.9h-7.6c-0.9,0-1.6-0.3-2.3-0.9c-0.6-0.6-0.9-1.4-0.9-2.2c0-0.9,0.3-1.6,0.9-2.2
			c0.7-0.6,1.4-0.9,2.3-0.9h19.6V50.6h-19.6c-3.7,0-6.8,1.3-9.4,3.9c-2.6,2.6-3.9,5.7-3.9,9.4c0,3.6,1.3,6.7,3.9,9.3
			c2.6,2.6,5.7,3.9,9.4,3.9h7.6c0.9,0,1.6,0.3,2.2,0.9c0.6,0.6,1,1.4,1,2.2c0,0.9-0.3,1.6-1,2.2c-0.6,0.6-1.3,0.9-2.2,0.9h-20.8
			v10.1h20.8c3.6,0,6.8-1.3,9.4-3.9c2.6-2.6,3.9-5.7,3.9-9.3c0-3.7-1.3-6.8-3.9-9.4S156.4,66.9,152.7,66.9z"/>
		<path class="st0" d="M192.8,50.5c-5.9,0-11,2.1-15.2,6.3c-4.2,4.2-6.3,9.2-6.3,15.1c0,5.7,2,10.6,5.9,14.7s8.7,6.4,14.3,6.7l0,0
			h12.6v-10h-11.3c-4.7,0-8.1-2.1-10.2-6.3c-1.2-1.9-0.9-8.5,0-10.1c2.1-4.2,5.5-6.3,10.2-6.3s8.1,2.1,10.2,6.3h-13.5V77h24.7v-5.1
			c0-5.9-2.1-11-6.3-15.1C203.8,52.6,198.7,50.5,192.8,50.5z"/>
		<path class="st0" d="M331.2,50.5c-5.9,0-11,2.1-15.2,6.3c-4.2,4.2-6.3,9.2-6.3,15.1c0,5.7,2,10.6,5.9,14.7s8.7,6.4,14.3,6.7l0,0
			h12.6v-10h-11.3c-4.7,0-8.1-2.1-10.2-6.3c-1.2-1.9-0.9-8.5,0-10.1c2.1-4.2,5.5-6.3,10.2-6.3s8.1,2.1,10.2,6.3h-13.5V77h24.8v-5.1
			c0-5.9-2.1-11-6.3-15.1C342.2,52.6,337.2,50.5,331.2,50.5z"/>
		<path class="st0" d="M225.9,56.8c-4.2,4.2-6.3,9.2-6.3,15.1v21.5h10.1V71.9c0-3.1,1.1-5.8,3.3-8c2.3-2.2,4.9-3.3,8.1-3.3h8.8V50.5
			h-8.8C235.1,50.5,230.1,52.6,225.9,56.8z"/>
		<polygon class="st0" points="283.2,71.8 279.8,79 274.3,90.9 275.5,93.4 284.2,93.4 304.4,50.5 293.2,50.5 		"/>
		<polygon class="st0" points="266.4,50.5 255.2,50.5 270.7,83.4 276.3,71.5 		"/>
		<path class="st0" d="M379.5,50.5c-6,0-11,2.1-15.2,6.3C360.1,61,358,66,358,71.9v21.5h10.1V71.9c0-3.1,1.1-5.8,3.3-8
			c2.2-2.2,4.9-3.3,8.1-3.3h8.8V50.5H379.5z"/>
		<rect x="53.3" y="68.4" class="st0" width="7" height="7"/>
	</g>
</g>
</svg>
